<svg id="visual" viewBox="0 0 960 540" width="960" height="540" xmlns="http://www.w3.org/2000/svg" xmlns:xlink="http://www.w3.org/1999/xlink" version="1.1"><g stroke-width="1" stroke-linejoin="bevel"><path d="M452 275L485 311L517 260Z" fill="#00101c" stroke="#00101c"></path><path d="M449 377L504 338L485 311Z" fill="#15384f" stroke="#15384f"></path><path d="M485 311L504 338L517 260Z" fill="#205a7a" stroke="#205a7a"></path><path d="M517 260L510 200L452 275Z" fill="#205a7a" stroke="#205a7a"></path><path d="M414 220L396 277L452 275Z" fill="#19435d" stroke="#19435d"></path><path d="M452 275L449 377L485 311Z" fill="#0c2435" stroke="#0c2435"></path><path d="M510 200L414 220L452 275Z" fill="#277297" stroke="#277297"></path><path d="M396 277L449 377L452 275Z" fill="#0c2435" stroke="#0c2435"></path><path d="M510 200L441 174L414 220Z" fill="#246688" stroke="#246688"></path><path d="M441 174L385 213L414 220Z" fill="#15384f" stroke="#15384f"></path><path d="M414 220L385 213L396 277Z" fill="#15384f" stroke="#15384f"></path><path d="M601 218L549 172L510 200Z" fill="#246688" stroke="#246688"></path><path d="M510 200L480 110L441 174Z" fill="#19435d" stroke="#19435d"></path><path d="M601 218L510 200L517 260Z" fill="#112e42" stroke="#112e42"></path><path d="M585 375L608 306L504 338Z" fill="#205a7a" stroke="#205a7a"></path><path d="M504 338L608 306L517 260Z" fill="#205a7a" stroke="#205a7a"></path><path d="M608 306L601 218L517 260Z" fill="#205a7a" stroke="#205a7a"></path><path d="M344 345L387 369L396 277Z" fill="#00101c" stroke="#00101c"></path><path d="M396 277L387 369L449 377Z" fill="#205a7a" stroke="#205a7a"></path><path d="M470 417L518 410L449 377Z" fill="#00101c" stroke="#00101c"></path><path d="M449 377L518 410L504 338Z" fill="#15384f" stroke="#15384f"></path><path d="M559 408L585 375L504 338Z" fill="#297ea6" stroke="#297ea6"></path><path d="M621 122L543 148L549 172Z" fill="#297ea6" stroke="#297ea6"></path><path d="M549 172L543 148L510 200Z" fill="#081a28" stroke="#081a28"></path><path d="M409 403L470 417L449 377Z" fill="#246688" stroke="#246688"></path><path d="M387 369L409 403L449 377Z" fill="#15384f" stroke="#15384f"></path><path d="M518 410L559 408L504 338Z" fill="#112e42" stroke="#112e42"></path><path d="M534 498L559 408L518 410Z" fill="#0c2435" stroke="#0c2435"></path><path d="M322 279L344 345L396 277Z" fill="#00101c" stroke="#00101c"></path><path d="M387 369L318 404L409 403Z" fill="#081a28" stroke="#081a28"></path><path d="M385 213L322 279L396 277Z" fill="#297ea6" stroke="#297ea6"></path><path d="M543 148L480 110L510 200Z" fill="#297ea6" stroke="#297ea6"></path><path d="M441 174L368 154L385 213Z" fill="#112e42" stroke="#112e42"></path><path d="M385 213L311 239L322 279Z" fill="#297ea6" stroke="#297ea6"></path><path d="M375 141L368 154L441 174Z" fill="#277297" stroke="#277297"></path><path d="M409 403L471 451L470 417Z" fill="#19435d" stroke="#19435d"></path><path d="M470 417L471 451L518 410Z" fill="#15384f" stroke="#15384f"></path><path d="M432 94L375 141L441 174Z" fill="#0c2435" stroke="#0c2435"></path><path d="M666 237L640 185L601 218Z" fill="#0c2435" stroke="#0c2435"></path><path d="M601 218L640 185L549 172Z" fill="#00101c" stroke="#00101c"></path><path d="M543 148L498 53L480 110Z" fill="#081a28" stroke="#081a28"></path><path d="M311 178L385 213L368 154Z" fill="#00101c" stroke="#00101c"></path><path d="M311 178L311 239L385 213Z" fill="#1d4e6b" stroke="#1d4e6b"></path><path d="M608 306L666 237L601 218Z" fill="#246688" stroke="#246688"></path><path d="M666 328L666 237L608 306Z" fill="#246688" stroke="#246688"></path><path d="M670 332L666 328L675 366Z" fill="#277297" stroke="#277297"></path><path d="M585 375L666 328L608 306Z" fill="#00101c" stroke="#00101c"></path><path d="M480 110L432 94L441 174Z" fill="#00101c" stroke="#00101c"></path><path d="M651 398L666 328L585 375Z" fill="#112e42" stroke="#112e42"></path><path d="M666 328L701 236L666 237Z" fill="#205a7a" stroke="#205a7a"></path><path d="M299 118L368 154L375 141Z" fill="#1d4e6b" stroke="#1d4e6b"></path><path d="M299 118L311 178L368 154Z" fill="#1d4e6b" stroke="#1d4e6b"></path><path d="M559 408L651 398L585 375Z" fill="#0c2435" stroke="#0c2435"></path><path d="M657 453L651 398L559 408Z" fill="#297ea6" stroke="#297ea6"></path><path d="M693 96L621 122L640 185Z" fill="#205a7a" stroke="#205a7a"></path><path d="M640 185L621 122L549 172Z" fill="#0c2435" stroke="#0c2435"></path><path d="M480 110L451 49L432 94Z" fill="#081a28" stroke="#081a28"></path><path d="M244 259L280 271L311 239Z" fill="#19435d" stroke="#19435d"></path><path d="M311 239L280 271L322 279Z" fill="#1d4e6b" stroke="#1d4e6b"></path><path d="M322 279L243 353L344 345Z" fill="#1d4e6b" stroke="#1d4e6b"></path><path d="M651 398L675 366L666 328Z" fill="#205a7a" stroke="#205a7a"></path><path d="M728 309L701 236L666 328Z" fill="#112e42" stroke="#112e42"></path><path d="M270 393L318 404L344 345Z" fill="#277297" stroke="#277297"></path><path d="M344 345L318 404L387 369Z" fill="#246688" stroke="#246688"></path><path d="M409 403L396 509L471 451Z" fill="#1d4e6b" stroke="#1d4e6b"></path><path d="M728 309L666 328L670 332Z" fill="#0c2435" stroke="#0c2435"></path><path d="M666 237L701 236L640 185Z" fill="#00101c" stroke="#00101c"></path><path d="M606 84L498 53L543 148Z" fill="#205a7a" stroke="#205a7a"></path><path d="M693 96L606 84L621 122Z" fill="#1d4e6b" stroke="#1d4e6b"></path><path d="M621 122L606 84L543 148Z" fill="#246688" stroke="#246688"></path><path d="M494 540L534 498L471 451Z" fill="#081a28" stroke="#081a28"></path><path d="M471 451L534 498L518 410Z" fill="#0c2435" stroke="#0c2435"></path><path d="M432 94L356 90L375 141Z" fill="#297ea6" stroke="#297ea6"></path><path d="M391 0L356 90L432 94Z" fill="#15384f" stroke="#15384f"></path><path d="M498 53L451 49L480 110Z" fill="#246688" stroke="#246688"></path><path d="M534 498L551 502L559 408Z" fill="#1d4e6b" stroke="#1d4e6b"></path><path d="M311 178L262 189L311 239Z" fill="#0c2435" stroke="#0c2435"></path><path d="M299 118L262 189L311 178Z" fill="#297ea6" stroke="#297ea6"></path><path d="M262 189L244 259L311 239Z" fill="#0c2435" stroke="#0c2435"></path><path d="M243 353L270 393L344 345Z" fill="#19435d" stroke="#19435d"></path><path d="M777 345L728 309L675 366Z" fill="#081a28" stroke="#081a28"></path><path d="M675 366L728 309L670 332Z" fill="#205a7a" stroke="#205a7a"></path><path d="M551 502L657 453L559 408Z" fill="#112e42" stroke="#112e42"></path><path d="M651 398L696 414L675 366Z" fill="#00101c" stroke="#00101c"></path><path d="M356 90L299 118L375 141Z" fill="#1d4e6b" stroke="#1d4e6b"></path><path d="M243 353L322 279L280 271Z" fill="#081a28" stroke="#081a28"></path><path d="M306 452L396 509L409 403Z" fill="#1d4e6b" stroke="#1d4e6b"></path><path d="M306 452L409 403L318 404Z" fill="#277297" stroke="#277297"></path><path d="M534 498L573 540L551 502Z" fill="#0c2435" stroke="#0c2435"></path><path d="M657 453L696 414L651 398Z" fill="#246688" stroke="#246688"></path><path d="M270 393L306 452L318 404Z" fill="#0c2435" stroke="#0c2435"></path><path d="M244 259L243 353L280 271Z" fill="#00101c" stroke="#00101c"></path><path d="M270 393L204 424L306 452Z" fill="#112e42" stroke="#112e42"></path><path d="M766 297L735 203L701 236Z" fill="#297ea6" stroke="#297ea6"></path><path d="M701 236L735 203L640 185Z" fill="#00101c" stroke="#00101c"></path><path d="M458 540L494 540L471 451Z" fill="#297ea6" stroke="#297ea6"></path><path d="M551 502L573 540L657 453Z" fill="#15384f" stroke="#15384f"></path><path d="M396 509L458 540L471 451Z" fill="#15384f" stroke="#15384f"></path><path d="M735 203L693 96L640 185Z" fill="#19435d" stroke="#19435d"></path><path d="M567 0L487 0L498 53Z" fill="#00101c" stroke="#00101c"></path><path d="M567 0L498 53L606 84Z" fill="#081a28" stroke="#081a28"></path><path d="M498 53L487 0L451 49Z" fill="#081a28" stroke="#081a28"></path><path d="M451 49L391 0L432 94Z" fill="#205a7a" stroke="#205a7a"></path><path d="M291 48L254 93L299 118Z" fill="#19435d" stroke="#19435d"></path><path d="M494 540L573 540L534 498Z" fill="#00101c" stroke="#00101c"></path><path d="M657 453L674 482L696 414Z" fill="#205a7a" stroke="#205a7a"></path><path d="M573 540L674 482L657 453Z" fill="#297ea6" stroke="#297ea6"></path><path d="M342 540L397 540L396 509Z" fill="#277297" stroke="#277297"></path><path d="M396 509L397 540L458 540Z" fill="#0c2435" stroke="#0c2435"></path><path d="M777 345L766 297L728 309Z" fill="#277297" stroke="#277297"></path><path d="M728 309L766 297L701 236Z" fill="#297ea6" stroke="#297ea6"></path><path d="M777 345L675 366L696 414Z" fill="#0c2435" stroke="#0c2435"></path><path d="M693 96L627 32L606 84Z" fill="#00101c" stroke="#00101c"></path><path d="M487 0L415 0L451 49Z" fill="#0c2435" stroke="#0c2435"></path><path d="M627 32L567 0L606 84Z" fill="#19435d" stroke="#19435d"></path><path d="M184 312L206 358L243 353Z" fill="#0c2435" stroke="#0c2435"></path><path d="M243 353L206 358L270 393Z" fill="#277297" stroke="#277297"></path><path d="M306 452L342 540L396 509Z" fill="#00101c" stroke="#00101c"></path><path d="M184 312L243 353L244 259Z" fill="#19435d" stroke="#19435d"></path><path d="M415 0L391 0L451 49Z" fill="#00101c" stroke="#00101c"></path><path d="M291 48L299 118L356 90Z" fill="#297ea6" stroke="#297ea6"></path><path d="M299 118L219 146L262 189Z" fill="#277297" stroke="#277297"></path><path d="M262 189L148 187L244 259Z" fill="#246688" stroke="#246688"></path><path d="M245 99L219 146L299 118Z" fill="#19435d" stroke="#19435d"></path><path d="M739 436L777 345L696 414Z" fill="#15384f" stroke="#15384f"></path><path d="M674 482L739 436L696 414Z" fill="#246688" stroke="#246688"></path><path d="M197 39L245 99L254 93Z" fill="#277297" stroke="#277297"></path><path d="M254 93L245 99L299 118Z" fill="#00101c" stroke="#00101c"></path><path d="M274 540L342 540L306 452Z" fill="#1d4e6b" stroke="#1d4e6b"></path><path d="M301 0L291 48L356 90Z" fill="#0c2435" stroke="#0c2435"></path><path d="M161 269L184 312L244 259Z" fill="#00101c" stroke="#00101c"></path><path d="M792 173L763 145L735 203Z" fill="#00101c" stroke="#00101c"></path><path d="M735 203L763 145L693 96Z" fill="#297ea6" stroke="#297ea6"></path><path d="M693 96L672 0L627 32Z" fill="#00101c" stroke="#00101c"></path><path d="M786 211L735 203L766 297Z" fill="#277297" stroke="#277297"></path><path d="M820 213L786 211L766 297Z" fill="#0c2435" stroke="#0c2435"></path><path d="M245 99L212 122L219 146Z" fill="#081a28" stroke="#081a28"></path><path d="M148 187L161 269L244 259Z" fill="#246688" stroke="#246688"></path><path d="M197 39L212 122L245 99Z" fill="#297ea6" stroke="#297ea6"></path><path d="M573 540L661 540L674 482Z" fill="#15384f" stroke="#15384f"></path><path d="M674 482L750 459L739 436Z" fill="#0c2435" stroke="#0c2435"></path><path d="M763 145L723 64L693 96Z" fill="#15384f" stroke="#15384f"></path><path d="M627 32L672 0L567 0Z" fill="#0c2435" stroke="#0c2435"></path><path d="M160 432L204 424L206 358Z" fill="#15384f" stroke="#15384f"></path><path d="M206 358L204 424L270 393Z" fill="#0c2435" stroke="#0c2435"></path><path d="M739 436L802 392L777 345Z" fill="#15384f" stroke="#15384f"></path><path d="M727 540L750 459L674 482Z" fill="#00101c" stroke="#00101c"></path><path d="M786 211L792 173L735 203Z" fill="#19435d" stroke="#19435d"></path><path d="M763 145L799 87L723 64Z" fill="#0c2435" stroke="#0c2435"></path><path d="M820 213L792 173L786 211Z" fill="#00101c" stroke="#00101c"></path><path d="M148 187L262 189L219 146Z" fill="#246688" stroke="#246688"></path><path d="M184 312L121 338L206 358Z" fill="#0c2435" stroke="#0c2435"></path><path d="M723 64L672 0L693 96Z" fill="#19435d" stroke="#19435d"></path><path d="M291 48L197 39L254 93Z" fill="#0c2435" stroke="#0c2435"></path><path d="M391 0L301 0L356 90Z" fill="#297ea6" stroke="#297ea6"></path><path d="M750 459L802 392L739 436Z" fill="#205a7a" stroke="#205a7a"></path><path d="M853 316L820 213L766 297Z" fill="#00101c" stroke="#00101c"></path><path d="M225 494L274 540L306 452Z" fill="#15384f" stroke="#15384f"></path><path d="M853 316L766 297L777 345Z" fill="#205a7a" stroke="#205a7a"></path><path d="M777 0L714 0L723 64Z" fill="#081a28" stroke="#081a28"></path><path d="M204 424L225 494L306 452Z" fill="#19435d" stroke="#19435d"></path><path d="M107 254L141 308L161 269Z" fill="#277297" stroke="#277297"></path><path d="M161 269L141 308L184 312Z" fill="#19435d" stroke="#19435d"></path><path d="M204 424L166 499L225 494Z" fill="#19435d" stroke="#19435d"></path><path d="M301 0L276 0L291 48Z" fill="#0c2435" stroke="#0c2435"></path><path d="M132 132L219 146L212 122Z" fill="#00101c" stroke="#00101c"></path><path d="M132 132L148 187L219 146Z" fill="#081a28" stroke="#081a28"></path><path d="M661 540L727 540L674 482Z" fill="#00101c" stroke="#00101c"></path><path d="M851 479L863 384L802 392Z" fill="#246688" stroke="#246688"></path><path d="M799 87L763 145L842 132Z" fill="#15384f" stroke="#15384f"></path><path d="M723 64L714 0L672 0Z" fill="#081a28" stroke="#081a28"></path><path d="M121 338L160 432L206 358Z" fill="#15384f" stroke="#15384f"></path><path d="M842 132L763 145L792 173Z" fill="#246688" stroke="#246688"></path><path d="M863 384L853 316L802 392Z" fill="#19435d" stroke="#19435d"></path><path d="M802 392L853 316L777 345Z" fill="#19435d" stroke="#19435d"></path><path d="M820 213L842 132L792 173Z" fill="#0c2435" stroke="#0c2435"></path><path d="M65 278L121 338L141 308Z" fill="#19435d" stroke="#19435d"></path><path d="M141 308L121 338L184 312Z" fill="#246688" stroke="#246688"></path><path d="M276 0L197 39L291 48Z" fill="#297ea6" stroke="#297ea6"></path><path d="M166 499L213 540L225 494Z" fill="#1d4e6b" stroke="#1d4e6b"></path><path d="M225 494L213 540L274 540Z" fill="#112e42" stroke="#112e42"></path><path d="M62 198L107 254L148 187Z" fill="#205a7a" stroke="#205a7a"></path><path d="M148 187L107 254L161 269Z" fill="#00101c" stroke="#00101c"></path><path d="M853 316L865 223L820 213Z" fill="#112e42" stroke="#112e42"></path><path d="M146 56L132 132L212 122Z" fill="#277297" stroke="#277297"></path><path d="M865 223L842 132L820 213Z" fill="#15384f" stroke="#15384f"></path><path d="M137 472L166 499L160 432Z" fill="#0c2435" stroke="#0c2435"></path><path d="M160 432L166 499L204 424Z" fill="#081a28" stroke="#081a28"></path><path d="M851 479L802 392L750 459Z" fill="#277297" stroke="#277297"></path><path d="M853 316L891 266L865 223Z" fill="#246688" stroke="#246688"></path><path d="M727 540L781 540L750 459Z" fill="#1d4e6b" stroke="#1d4e6b"></path><path d="M72 389L137 472L160 432Z" fill="#1d4e6b" stroke="#1d4e6b"></path><path d="M72 389L160 432L121 338Z" fill="#19435d" stroke="#19435d"></path><path d="M799 87L777 0L723 64Z" fill="#297ea6" stroke="#297ea6"></path><path d="M859 35L777 0L799 87Z" fill="#081a28" stroke="#081a28"></path><path d="M924 332L891 266L853 316Z" fill="#205a7a" stroke="#205a7a"></path><path d="M865 223L906 126L842 132Z" fill="#112e42" stroke="#112e42"></path><path d="M176 0L146 56L197 39Z" fill="#15384f" stroke="#15384f"></path><path d="M197 39L146 56L212 122Z" fill="#205a7a" stroke="#205a7a"></path><path d="M62 198L65 278L107 254Z" fill="#15384f" stroke="#15384f"></path><path d="M924 332L897 261L891 266Z" fill="#081a28" stroke="#081a28"></path><path d="M891 266L897 261L865 223Z" fill="#246688" stroke="#246688"></path><path d="M276 0L176 0L197 39Z" fill="#277297" stroke="#277297"></path><path d="M781 540L851 479L750 459Z" fill="#00101c" stroke="#00101c"></path><path d="M863 384L924 332L853 316Z" fill="#297ea6" stroke="#297ea6"></path><path d="M781 540L815 540L851 479Z" fill="#112e42" stroke="#112e42"></path><path d="M62 198L148 187L74 144Z" fill="#00101c" stroke="#00101c"></path><path d="M107 254L65 278L141 308Z" fill="#205a7a" stroke="#205a7a"></path><path d="M89 540L157 540L137 472Z" fill="#15384f" stroke="#15384f"></path><path d="M137 472L157 540L166 499Z" fill="#297ea6" stroke="#297ea6"></path><path d="M166 499L157 540L213 540Z" fill="#277297" stroke="#277297"></path><path d="M55 387L72 389L121 338Z" fill="#00101c" stroke="#00101c"></path><path d="M74 144L132 132L87 32Z" fill="#246688" stroke="#246688"></path><path d="M74 144L148 187L132 132Z" fill="#00101c" stroke="#00101c"></path><path d="M87 32L132 132L146 56Z" fill="#081a28" stroke="#081a28"></path><path d="M176 0L148 0L146 56Z" fill="#00101c" stroke="#00101c"></path><path d="M919 434L924 332L863 384Z" fill="#112e42" stroke="#112e42"></path><path d="M891 52L859 35L842 132Z" fill="#246688" stroke="#246688"></path><path d="M842 132L859 35L799 87Z" fill="#277297" stroke="#277297"></path><path d="M906 126L865 223L928 209Z" fill="#00101c" stroke="#00101c"></path><path d="M0 264L42 272L62 198Z" fill="#0c2435" stroke="#0c2435"></path><path d="M62 198L42 272L65 278Z" fill="#112e42" stroke="#112e42"></path><path d="M65 278L55 387L121 338Z" fill="#00101c" stroke="#00101c"></path><path d="M0 329L55 387L65 278Z" fill="#00101c" stroke="#00101c"></path><path d="M72 389L54 462L137 472Z" fill="#19435d" stroke="#19435d"></path><path d="M928 209L865 223L897 261Z" fill="#081a28" stroke="#081a28"></path><path d="M960 244L928 209L897 261Z" fill="#205a7a" stroke="#205a7a"></path><path d="M901 490L919 434L851 479Z" fill="#246688" stroke="#246688"></path><path d="M851 479L919 434L863 384Z" fill="#1d4e6b" stroke="#1d4e6b"></path><path d="M960 89L891 52L906 126Z" fill="#00101c" stroke="#00101c"></path><path d="M906 126L891 52L842 132Z" fill="#205a7a" stroke="#205a7a"></path><path d="M815 540L870 540L851 479Z" fill="#15384f" stroke="#15384f"></path><path d="M870 540L901 490L851 479Z" fill="#081a28" stroke="#081a28"></path><path d="M148 0L87 32L146 56Z" fill="#081a28" stroke="#081a28"></path><path d="M0 147L0 264L62 198Z" fill="#0c2435" stroke="#0c2435"></path><path d="M901 0L865 0L859 35Z" fill="#00101c" stroke="#00101c"></path><path d="M859 35L865 0L777 0Z" fill="#00101c" stroke="#00101c"></path><path d="M0 418L54 462L55 387Z" fill="#297ea6" stroke="#297ea6"></path><path d="M55 387L54 462L72 389Z" fill="#297ea6" stroke="#297ea6"></path><path d="M924 332L960 270L897 261Z" fill="#246688" stroke="#246688"></path><path d="M928 209L960 156L906 126Z" fill="#112e42" stroke="#112e42"></path><path d="M960 357L960 270L924 332Z" fill="#15384f" stroke="#15384f"></path><path d="M960 270L960 244L897 261Z" fill="#081a28" stroke="#081a28"></path><path d="M54 462L89 540L137 472Z" fill="#1d4e6b" stroke="#1d4e6b"></path><path d="M919 434L960 357L924 332Z" fill="#297ea6" stroke="#297ea6"></path><path d="M960 418L960 357L919 434Z" fill="#277297" stroke="#277297"></path><path d="M0 147L62 198L74 144Z" fill="#246688" stroke="#246688"></path><path d="M42 272L0 321L65 278Z" fill="#277297" stroke="#277297"></path><path d="M960 244L960 156L928 209Z" fill="#112e42" stroke="#112e42"></path><path d="M891 52L901 0L859 35Z" fill="#1d4e6b" stroke="#1d4e6b"></path><path d="M0 264L0 321L42 272Z" fill="#277297" stroke="#277297"></path><path d="M0 321L0 329L65 278Z" fill="#0c2435" stroke="#0c2435"></path><path d="M960 454L919 434L901 490Z" fill="#081a28" stroke="#081a28"></path><path d="M960 454L960 418L919 434Z" fill="#19435d" stroke="#19435d"></path><path d="M960 0L901 0L891 52Z" fill="#297ea6" stroke="#297ea6"></path><path d="M0 139L0 147L74 144Z" fill="#246688" stroke="#246688"></path><path d="M0 88L0 139L74 144Z" fill="#112e42" stroke="#112e42"></path><path d="M960 540L960 454L901 490Z" fill="#246688" stroke="#246688"></path><path d="M0 329L0 418L55 387Z" fill="#0c2435" stroke="#0c2435"></path><path d="M54 462L0 506L89 540Z" fill="#277297" stroke="#277297"></path><path d="M960 156L960 90L906 126Z" fill="#1d4e6b" stroke="#1d4e6b"></path><path d="M960 90L960 89L906 126Z" fill="#277297" stroke="#277297"></path><path d="M148 0L55 0L87 32Z" fill="#246688" stroke="#246688"></path><path d="M87 32L0 88L74 144Z" fill="#246688" stroke="#246688"></path><path d="M55 0L0 88L87 32Z" fill="#297ea6" stroke="#297ea6"></path><path d="M0 418L0 506L54 462Z" fill="#0c2435" stroke="#0c2435"></path><path d="M870 540L960 540L901 490Z" fill="#00101c" stroke="#00101c"></path><path d="M960 89L960 0L891 52Z" fill="#112e42" stroke="#112e42"></path><path d="M0 506L0 540L89 540Z" fill="#205a7a" stroke="#205a7a"></path><path d="M55 0L0 0L0 88Z" fill="#0c2435" stroke="#0c2435"></path></g></svg>