<svg id="visual" viewBox="0 0 960 540" width="960" height="540" xmlns="http://www.w3.org/2000/svg" xmlns:xlink="http://www.w3.org/1999/xlink" version="1.1"><path d="M0 158L14.5 158C29 158 58 158 87.2 143.5C116.3 129 145.7 100 174.8 98.2C204 96.3 233 121.7 262 127.2C291 132.7 320 118.3 349 131.8C378 145.3 407 186.7 436.2 191.2C465.3 195.7 494.7 163.3 523.8 134.5C553 105.7 582 80.3 611 85.7C640 91 669 127 698 132.3C727 137.7 756 112.3 785.2 106C814.3 99.7 843.7 112.3 872.8 118.7C902 125 931 125 945.5 125L960 125L960 0L945.5 0C931 0 902 0 872.8 0C843.7 0 814.3 0 785.2 0C756 0 727 0 698 0C669 0 640 0 611 0C582 0 553 0 523.8 0C494.7 0 465.3 0 436.2 0C407 0 378 0 349 0C320 0 291 0 262 0C233 0 204 0 174.8 0C145.7 0 116.3 0 87.2 0C58 0 29 0 14.5 0L0 0Z" fill="#6198ff"></path><path d="M0 201L14.5 204.5C29 208 58 215 87.2 200.5C116.3 186 145.7 150 174.8 151C204 152 233 190 262 203.5C291 217 320 206 349 215C378 224 407 253 436.2 254C465.3 255 494.7 228 523.8 204.5C553 181 582 161 611 167.3C640 173.7 669 206.3 698 211.8C727 217.3 756 195.7 785.2 184.8C814.3 174 843.7 174 872.8 181.2C902 188.3 931 202.7 945.5 209.8L960 217L960 123L945.5 123C931 123 902 123 872.8 116.7C843.7 110.3 814.3 97.7 785.2 104C756 110.3 727 135.7 698 130.3C669 125 640 89 611 83.7C582 78.3 553 103.7 523.8 132.5C494.7 161.3 465.3 193.7 436.2 189.2C407 184.7 378 143.3 349 129.8C320 116.3 291 130.7 262 125.2C233 119.7 204 94.3 174.8 96.2C145.7 98 116.3 127 87.2 141.5C58 156 29 156 14.5 156L0 156Z" fill="#3c80ff"></path><path d="M0 325L14.5 331.3C29 337.7 58 350.3 87.2 340.5C116.3 330.7 145.7 298.3 174.8 293.8C204 289.3 233 312.7 262 315.3C291 318 320 300 349 301.8C378 303.7 407 325.3 436.2 327.2C465.3 329 494.7 311 523.8 298.3C553 285.7 582 278.3 611 282.8C640 287.3 669 303.7 698 296.5C727 289.3 756 258.7 785.2 242.3C814.3 226 843.7 224 872.8 238.3C902 252.7 931 283.3 945.5 298.7L960 314L960 215L945.5 207.8C931 200.7 902 186.3 872.8 179.2C843.7 172 814.3 172 785.2 182.8C756 193.7 727 215.3 698 209.8C669 204.3 640 171.7 611 165.3C582 159 553 179 523.8 202.5C494.7 226 465.3 253 436.2 252C407 251 378 222 349 213C320 204 291 215 262 201.5C233 188 204 150 174.8 149C145.7 148 116.3 184 87.2 198.5C58 213 29 206 14.5 202.5L0 199Z" fill="#0066ff"></path><path d="M0 417L14.5 420.5C29 424 58 431 87.2 415.7C116.3 400.3 145.7 362.7 174.8 360C204 357.3 233 389.7 262 399.5C291 409.3 320 396.7 349 398.5C378 400.3 407 416.7 436.2 408.7C465.3 400.7 494.7 368.3 523.8 356.7C553 345 582 354 611 358.5C640 363 669 363 698 357.5C727 352 756 341 785.2 331C814.3 321 843.7 312 872.8 325.5C902 339 931 375 945.5 393L960 411L960 312L945.5 296.7C931 281.3 902 250.7 872.8 236.3C843.7 222 814.3 224 785.2 240.3C756 256.7 727 287.3 698 294.5C669 301.7 640 285.3 611 280.8C582 276.3 553 283.7 523.8 296.3C494.7 309 465.3 327 436.2 325.2C407 323.3 378 301.7 349 299.8C320 298 291 316 262 313.3C233 310.7 204 287.3 174.8 291.8C145.7 296.3 116.3 328.7 87.2 338.5C58 348.3 29 335.7 14.5 329.3L0 323Z" fill="#0059dd"></path><path d="M0 541L14.5 541C29 541 58 541 87.2 541C116.3 541 145.7 541 174.8 541C204 541 233 541 262 541C291 541 320 541 349 541C378 541 407 541 436.2 541C465.3 541 494.7 541 523.8 541C553 541 582 541 611 541C640 541 669 541 698 541C727 541 756 541 785.2 541C814.3 541 843.7 541 872.8 541C902 541 931 541 945.5 541L960 541L960 409L945.5 391C931 373 902 337 872.8 323.5C843.7 310 814.3 319 785.2 329C756 339 727 350 698 355.5C669 361 640 361 611 356.5C582 352 553 343 523.8 354.7C494.7 366.3 465.3 398.7 436.2 406.7C407 414.7 378 398.3 349 396.5C320 394.7 291 407.3 262 397.5C233 387.7 204 355.3 174.8 358C145.7 360.7 116.3 398.3 87.2 413.7C58 429 29 422 14.5 418.5L0 415Z" fill="#004cbb"></path></svg>